<svg width="32" height="12" viewBox="0 0 32 12" fill="#FF9728" xmlns="http://www.w3.org/2000/svg">
<path d="M0 0V2.4H2.4V12H4.8V0H0Z" fill="#FF9728"/>
<path d="M10.8008 0V2.4H15.6008V4.8H13.2008C12.5643 4.8 11.9538 5.05286 11.5037 5.50294C11.0536 5.95303 10.8008 6.56348 10.8008 7.2V12H18.0008V9.6H13.2008V7.2H15.6008C16.2373 7.2 16.8477 6.94714 17.2978 6.49706C17.7479 6.04697 18.0008 5.43652 18.0008 4.8V2.4C18.0008 1.76348 17.7479 1.15303 17.2978 0.702944C16.8477 0.252856 16.2373 0 15.6008 0H10.8008Z" fill="#FF9728"/>
<path d="M31.2 9.6V7.8C31.2 7.32261 31.0104 6.86477 30.6728 6.52721C30.3352 6.18964 29.8774 6 29.4 6C29.8774 6 30.3352 5.81036 30.6728 5.47279C31.0104 5.13523 31.2 4.67739 31.2 4.2V2.4C31.2 1.76348 30.9471 1.15303 30.4971 0.702944C30.047 0.252856 29.4365 0 28.8 0H24V2.4H28.8V4.8H26.4V7.2H28.8V9.6H24V12H28.8C29.4365 12 30.047 11.7471 30.4971 11.2971C30.9471 10.847 31.2 10.2365 31.2 9.6Z" fill="#FF9728"/>
</svg>
