<svg width="17" height="18" viewBox="0 0 17 18" fill="#FF9728" xmlns="http://www.w3.org/2000/svg">
<path d="M7 2H17V4H7M7 16V14H17V16M7 8H17V10H7V8Z" fill="#FF9728"/>
<path d="M0 0V1.4H1.5V7H3V0H0Z" fill="#FF9728"/>
<path d="M0 11V12.4H2.66667V13.8H1.33333C0.979711 13.8 0.640573 13.9475 0.390525 14.2101C0.140476 14.4726 0 14.8287 0 15.2V18H4V16.6H1.33333V15.2H2.66667C3.02029 15.2 3.35943 15.0525 3.60948 14.7899C3.85952 14.5274 4 14.1713 4 13.8V12.4C4 12.0287 3.85952 11.6726 3.60948 11.4101C3.35943 11.1475 3.02029 11 2.66667 11H0Z" fill="#FF9728"/>
</svg>
