<svg width="10" height="19" viewBox="0 0 10 19" fill="#FF9728" xmlns="http://www.w3.org/2000/svg">
<path d="M6.14103 8.27857C3.85897 7.47786 2.75641 6.97571 2.75641 5.7C2.75641 4.31571 4.17949 3.81357 5.07692 3.81357C6.75641 3.81357 7.3718 5.15714 7.51282 5.63214L9.53846 4.72286C9.34615 4.11214 8.48718 2.11714 6.28205 1.68286V0H3.71795V1.71C0.538461 2.47 0.525641 5.59143 0.525641 5.72714C0.525641 8.80786 3.41026 9.67643 4.82051 10.2193C6.84615 10.9793 7.74359 11.6714 7.74359 12.9743C7.74359 14.5079 6.39744 15.1593 5.20513 15.1593C2.87179 15.1593 2.20513 12.6214 2.12821 12.3229L0 13.2321C0.807692 16.2043 2.92308 17.005 3.71795 17.2493V19H6.28205V17.3171C6.79487 17.195 10 16.5164 10 12.9471C10 11.0607 9.21795 9.405 6.14103 8.27857Z" fill="#FF9728"/>
</svg>
