<svg width="21" height="21" viewBox="0 0 21 21" fill="none" xmlns="http://www.w3.org/2000/svg">
<path d="M4.33333 6.3H2.88889V7.7H4.33333V6.3ZM7.22222 6.3H5.77778V7.7H7.22222V6.3ZM10.1111 6.3H8.66667V7.7H10.1111V6.3ZM11.5556 1.4H10.8333V0H9.38889V1.4H3.61111V0H2.16667V1.4H1.44444C1.06135 1.4 0.693954 1.5475 0.423068 1.81005C0.152182 2.0726 0 2.4287 0 2.8V12.6C0 12.9713 0.152182 13.3274 0.423068 13.5899C0.693954 13.8525 1.06135 14 1.44444 14H11.5556C11.9386 14 12.306 13.8525 12.5769 13.5899C12.8478 13.3274 13 12.9713 13 12.6V2.8C13 2.4287 12.8478 2.0726 12.5769 1.81005C12.306 1.5475 11.9386 1.4 11.5556 1.4ZM11.5556 12.6H1.44444V4.9H11.5556V12.6Z" fill="#666666"/>
<path d="M13.993 7C10.129 7 7 10.136 7 14C7 17.864 10.129 21 13.993 21C17.864 21 21 17.864 21 14C21 10.136 17.864 7 13.993 7ZM16.303 17.297L13.3 14.287V10.5H14.7V13.713L17.297 16.31L16.303 17.297Z" fill="#666666"/>
</svg>
