<svg width="23" height="13" viewBox="0 0 23 13" fill="#FF9728" xmlns="http://www.w3.org/2000/svg">
<path d="M7.66667 0C6.95942 0 6.28115 0.273928 5.78105 0.761522C5.28095 1.24912 5 1.91044 5 2.6V10.4C5 11.0896 5.28095 11.7509 5.78105 12.2385C6.28115 12.7261 6.95942 13 7.66667 13H10.3333C11.0406 13 11.7189 12.7261 12.219 12.2385C12.719 11.7509 13 11.0896 13 10.4V2.6C13 1.91044 12.719 1.24912 12.219 0.761522C11.7189 0.273928 11.0406 0 10.3333 0H7.66667ZM7.66667 2.6H10.3333V10.4H7.66667V2.6Z" fill="#FF9728"/>
<path d="M17.6667 0C16.9594 0 16.2811 0.273928 15.781 0.761522C15.281 1.24912 15 1.91044 15 2.6V10.4C15 11.0896 15.281 11.7509 15.781 12.2385C16.2811 12.7261 16.9594 13 17.6667 13H20.3333C21.0406 13 21.7189 12.7261 22.219 12.2385C22.719 11.7509 23 11.0896 23 10.4V2.6C23 1.91044 22.719 1.24912 22.219 0.761522C21.7189 0.273928 21.0406 0 20.3333 0H17.6667ZM17.6667 2.6H20.3333V10.4H17.6667V2.6Z" fill="#FF9728"/>
<circle cx="1.5" cy="11.5" r="1.5" fill="#666666"/>
</svg>
