<svg width="19" height="20" viewBox="0 0 19 20" fill="#FF9728" xmlns="http://www.w3.org/2000/svg">
<path d="M9.18682 2.30496C8.22282 1.58196 6.84181 2.23496 6.78882 3.43896L6.71182 5.16496H8.99982C9.26503 5.16496 9.51939 5.27031 9.70692 5.45785C9.89446 5.64539 9.99982 5.89974 9.99982 6.16496C9.99982 6.43017 9.89446 6.68453 9.70692 6.87206C9.51939 7.0596 9.26503 7.16496 8.99982 7.16496H6.62282L6.22982 16.015C6.09981 18.946 2.63682 20.425 0.428816 18.494L0.341816 18.418C0.24293 18.3315 0.162046 18.2264 0.10378 18.1086C0.045515 17.9909 0.0110096 17.8628 0.00223442 17.7318C-0.00654072 17.6007 0.0105862 17.4692 0.0526373 17.3447C0.0946884 17.2203 0.16084 17.1053 0.247316 17.0065C0.333791 16.9076 0.438897 16.8267 0.556632 16.7684C0.674366 16.7102 0.802424 16.6756 0.933494 16.6669C1.06456 16.6581 1.19608 16.6752 1.32053 16.7173C1.44498 16.7593 1.55993 16.8255 1.65882 16.912L1.74582 16.988C2.69182 17.817 4.17582 17.182 4.23182 15.926L4.62182 7.16496H2.99982C2.7346 7.16496 2.48025 7.0596 2.29271 6.87206C2.10517 6.68453 1.99982 6.43017 1.99982 6.16496C1.99982 5.89974 2.10517 5.64539 2.29271 5.45785C2.48025 5.27031 2.7346 5.16496 2.99982 5.16496H4.70982L4.78982 3.34996C4.91582 0.539956 8.13682 -0.982044 10.3868 0.704956L10.5998 0.864956C10.7049 0.943749 10.7934 1.04246 10.8603 1.15546C10.9272 1.26846 10.9712 1.39353 10.9898 1.52353C11.0083 1.65354 11.0011 1.78592 10.9685 1.91314C10.9359 2.04035 10.8786 2.1599 10.7998 2.26496C10.721 2.37001 10.6223 2.45852 10.5093 2.52543C10.3963 2.59234 10.2712 2.63633 10.1412 2.65491C10.0112 2.67348 9.87885 2.66626 9.75163 2.63367C9.62442 2.60108 9.50487 2.54375 9.39982 2.46496L9.18682 2.30496ZM10.0818 11.211C10.1416 11.1781 10.2076 11.1578 10.2755 11.1514C10.3435 11.145 10.412 11.1525 10.477 11.1736C10.5419 11.1947 10.6018 11.2288 10.653 11.274C10.7043 11.3191 10.7457 11.3742 10.7748 11.436L11.5878 13.163L8.29282 16.458C8.11066 16.6466 8.00986 16.8992 8.01214 17.1614C8.01442 17.4236 8.11959 17.6744 8.305 17.8598C8.49041 18.0452 8.74122 18.1504 9.00342 18.1526C9.26561 18.1549 9.51821 18.0541 9.70682 17.872L12.4928 15.086L13.2728 16.743C13.435 17.0877 13.6739 17.3907 13.9711 17.629C14.2684 17.8673 14.6161 18.0346 14.9879 18.1179C15.3596 18.2013 15.7455 18.1986 16.116 18.11C16.4865 18.0215 16.8319 17.8494 17.1258 17.607L17.6358 17.187C17.7397 17.1043 17.826 17.0017 17.8899 16.8853C17.9537 16.7689 17.9937 16.6409 18.0075 16.5089C18.0214 16.3769 18.0088 16.2434 17.9705 16.1163C17.9323 15.9892 17.8691 15.8709 17.7846 15.7685C17.7002 15.6661 17.5962 15.5815 17.4787 15.5196C17.3612 15.4578 17.2326 15.42 17.1003 15.4084C16.9681 15.3968 16.8348 15.4117 16.7084 15.4521C16.5819 15.4926 16.4648 15.5578 16.3638 15.644L15.8538 16.064C15.7951 16.1125 15.726 16.1471 15.6519 16.1649C15.5778 16.1827 15.5006 16.1833 15.4262 16.1667C15.3518 16.1501 15.2822 16.1167 15.2227 16.0691C15.1632 16.0215 15.1153 15.9609 15.0828 15.892L13.9958 13.583L16.7068 10.872C16.8023 10.7797 16.8785 10.6694 16.9309 10.5474C16.9833 10.4254 17.0109 10.2941 17.0121 10.1614C17.0132 10.0286 16.9879 9.8969 16.9376 9.774C16.8874 9.65111 16.8131 9.53945 16.7192 9.44556C16.6253 9.35167 16.5137 9.27742 16.3908 9.22713C16.2679 9.17685 16.1362 9.15155 16.0034 9.15271C15.8706 9.15386 15.7394 9.18145 15.6174 9.23385C15.4954 9.28626 15.3851 9.36245 15.2928 9.45796L13.0908 11.66L12.5848 10.585C12.4394 10.2759 12.2321 9.9999 11.9759 9.77403C11.7197 9.54815 11.4199 9.37719 11.095 9.27168C10.7701 9.16616 10.4271 9.12835 10.087 9.16056C9.74695 9.19277 9.4171 9.29432 9.11782 9.45896L8.51782 9.78896C8.2903 9.91932 8.1231 10.1338 8.05222 10.3863C7.98134 10.6387 8.01245 10.9089 8.13886 11.1387C8.26527 11.3684 8.47685 11.5393 8.72804 11.6146C8.97923 11.6898 9.24992 11.6634 9.48182 11.541L10.0818 11.211Z" fill="#FF9728"/>
</svg>
