<svg width="19" height="19" viewBox="0 0 19 19" fill="#FF9728" xmlns="http://www.w3.org/2000/svg">
<path d="M2.11111 19C1.53056 19 1.03339 18.7935 0.619611 18.3804C0.206537 17.9666 0 17.4694 0 16.8889V2.11111C0 1.53056 0.206537 1.03339 0.619611 0.619611C1.03339 0.206537 1.53056 0 2.11111 0H16.8889C17.4694 0 17.9666 0.206537 18.3804 0.619611C18.7935 1.03339 19 1.53056 19 2.11111V16.8889C19 17.4694 18.7935 17.9666 18.3804 18.3804C17.9666 18.7935 17.4694 19 16.8889 19H2.11111ZM2.11111 16.8889H16.8889V2.11111H2.11111V16.8889ZM3.16667 14.7778H15.8333L11.875 9.5L8.70833 13.7222L6.33333 10.5556L3.16667 14.7778ZM2.11111 16.8889V2.11111V16.8889Z" fill="#FF9728"/>
</svg>
