<svg width="26" height="12" viewBox="0 0 26 12" fill="#FF9728" xmlns="http://www.w3.org/2000/svg">
<circle cx="10.5" cy="10.5" r="1.5" fill="#FF9728"/>
<circle cx="15.5" cy="10.5" r="1.5" fill="#FF9728"/>
<path d="M4.66667 12C5.2855 12 5.879 11.7471 6.31658 11.2971C6.75417 10.847 7 10.2365 7 9.6L7 2.4C7 1.76348 6.75417 1.15303 6.31658 0.702945C5.879 0.252857 5.28551 8.03788e-07 4.66667 7.49688e-07L2.33333 5.45701e-07C1.71449 4.91601e-07 1.121 0.252857 0.683418 0.702944C0.245833 1.15303 -5.87694e-08 1.76348 -1.14416e-07 2.4L-3.2423e-07 4.8C-3.79877e-07 5.43652 0.245832 6.04697 0.683417 6.49706C1.121 6.94714 1.71449 7.2 2.33333 7.2L4.66667 7.2L4.66667 9.6L-7.4386e-07 9.6L-9.53674e-07 12L4.66667 12ZM4.66667 4.8L2.33333 4.8L2.33333 2.4L4.66667 2.4L4.66667 4.8Z" fill="#FF9728"/>
<path d="M23.6667 12C24.2855 12 24.879 11.7471 25.3166 11.2971C25.7542 10.847 26 10.2365 26 9.6L26 2.4C26 1.76348 25.7542 1.15303 25.3166 0.702945C24.879 0.252857 24.2855 8.03788e-07 23.6667 7.49688e-07L21.3333 5.45701e-07C20.7145 4.91601e-07 20.121 0.252857 19.6834 0.702944C19.2458 1.15303 19 1.76348 19 2.4L19 4.8C19 5.43652 19.2458 6.04697 19.6834 6.49706C20.121 6.94714 20.7145 7.2 21.3333 7.2L23.6667 7.2L23.6667 9.6L19 9.6L19 12L23.6667 12ZM23.6667 4.8L21.3333 4.8L21.3333 2.4L23.6667 2.4L23.6667 4.8Z" fill="#FF9728"/>
</svg>
