<svg width="28" height="19" viewBox="0 0 28 19" fill="#FF9728" xmlns="http://www.w3.org/2000/svg">
<path d="M5.71647 4.3899H1.42912C0.643103 4.3899 0 3.73245 0 2.92889C0 2.12534 0.643103 1.46788 1.42912 1.46788H5.71647C6.50249 1.46788 7.14559 2.12534 7.14559 2.92889C7.14559 3.73245 6.50249 4.3899 5.71647 4.3899ZM5.71647 8.77293H1.42912C0.643103 8.77293 0 9.43039 0 10.2339C0 11.0375 0.643103 11.695 1.42912 11.695H5.71647C6.50249 11.695 7.14559 11.0375 7.14559 10.2339C7.14559 9.43039 6.50249 8.77293 5.71647 8.77293ZM25.5526 17.9627L21.0938 13.4043C19.8647 14.2225 18.3928 14.69 16.8064 14.6024C13.4194 14.4416 10.5183 11.7388 10.061 8.30541C9.91006 7.16426 10.0245 6.00281 10.3949 4.91533C10.7654 3.82785 11.3814 2.845 12.1931 2.04654C13.0047 1.24809 13.9891 0.656547 15.0663 0.319924C16.1435 -0.0166995 17.2831 -0.0889134 18.3928 0.109143C21.1795 0.591277 23.4947 2.81201 24.1092 5.63176C24.5808 7.76484 24.1235 9.75181 23.1088 11.3297L27.582 15.9027C28.1393 16.4725 28.1393 17.3929 27.582 17.9627C27.0246 18.5325 26.11 18.5325 25.5526 17.9627ZM21.4368 7.31192C21.4368 4.90126 19.5075 2.92889 17.1494 2.92889C14.7914 2.92889 12.8621 4.90126 12.8621 7.31192C12.8621 9.72259 14.7914 11.695 17.1494 11.695C19.5075 11.695 21.4368 9.72259 21.4368 7.31192ZM1.42912 19H12.8621C13.6481 19 14.2912 18.3425 14.2912 17.539C14.2912 16.7354 13.6481 16.078 12.8621 16.078H1.42912C0.643103 16.078 0 16.7354 0 17.539C0 18.3425 0.643103 19 1.42912 19Z" fill="#FF9728"/>
</svg>
