<svg width="29" height="18" viewBox="0 0 29 18" fill="#FF9728" xmlns="http://www.w3.org/2000/svg">
<path d="M2.55615 9.82641C1.56458 9.82641 0.769531 10.6215 0.769531 11.613V15.1863C0.769531 16.1779 1.56458 16.9729 2.55615 16.9729H6.12939C7.12097 16.9729 7.91601 16.1779 7.91601 15.1863V11.613C7.91601 10.6215 7.12097 9.82641 6.12939 9.82641M6.30806 11.1664L7.25497 12.1044L3.69066 15.6329L1.43058 13.355L2.38642 12.417L3.69959 13.748M2.55615 0.89331C1.56458 0.89331 0.769531 1.68836 0.769531 2.67993V6.25317C0.769531 7.24475 1.56458 8.03979 2.55615 8.03979H6.12939C7.12097 8.03979 7.91601 7.24475 7.91601 6.25317V2.67993C7.91601 1.68836 7.12097 0.89331 6.12939 0.89331M2.55615 2.67993H6.12939V6.25317H2.55615M9.70264 2.67993H13.2759V4.46655H9.70264M9.70264 15.1863V13.3997H18.6357V15.1863M9.70264 8.03979H15.0625V9.82641H9.70264V8.03979Z" fill="#FF9728"/>
<path d="M27.4771 17.2394L22.4745 12.2369C22.0279 12.5942 21.5142 12.8771 20.9336 13.0855C20.3529 13.294 19.735 13.3982 19.08 13.3982C17.4571 13.3982 16.0838 12.8363 14.96 11.7125C13.8356 10.5881 13.2734 9.21452 13.2734 7.59167C13.2734 5.96883 13.8356 4.59521 14.96 3.47083C16.0838 2.34705 17.4571 1.78516 19.08 1.78516C20.7028 1.78516 22.0764 2.34705 23.2008 3.47083C24.3246 4.59521 24.8865 5.96883 24.8865 7.59167C24.8865 8.24677 24.7823 8.86464 24.5738 9.44529C24.3654 10.0259 24.0825 10.5396 23.7252 10.9863L28.75 16.0111C28.9138 16.1749 28.9957 16.3759 28.9957 16.6141C28.9957 16.8523 28.9064 17.0608 28.7277 17.2394C28.5639 17.4032 28.3555 17.4851 28.1024 17.4851C27.8493 17.4851 27.6408 17.4032 27.4771 17.2394ZM19.08 11.6116C20.1966 11.6116 21.1459 11.2209 21.9278 10.4395C22.7092 9.6576 23.0999 8.70831 23.0999 7.59167C23.0999 6.47504 22.7092 5.52574 21.9278 4.7438C21.1459 3.96245 20.1966 3.57178 19.08 3.57178C17.9633 3.57178 17.014 3.96245 16.2321 4.7438C15.4507 5.52574 15.0601 6.47504 15.0601 7.59167C15.0601 8.70831 15.4507 9.6576 16.2321 10.4395C17.014 11.2209 17.9633 11.6116 19.08 11.6116Z" fill="#FF9728"/>
</svg>
