<svg width="17" height="25" viewBox="0 0 17 25" fill="none" xmlns="http://www.w3.org/2000/svg">
<path d="M0.636504 1.12967C0.723038 0.806723 0.902799 0.566441 1.17579 0.408831C1.44878 0.25122 1.74675 0.215682 2.0697 0.302216L6.42953 1.47043C6.68072 1.53773 6.87905 1.67741 7.02453 1.88946C7.16929 2.10132 7.23493 2.34005 7.22145 2.60566L6.97986 6.5215C6.94844 6.7823 6.85763 7.03219 6.70745 7.27116C6.55674 7.50923 6.37902 7.68737 6.17428 7.80557L2.96664 9.6575C3.42659 11.2422 4.06905 12.7558 4.89401 14.1984C5.71915 15.6402 6.67667 16.9109 7.76656 18.0106L11.1035 16.1068C11.3082 15.9886 11.52 15.9346 11.7388 15.9447C11.9567 15.9554 12.1864 16.0124 12.428 16.1156L16.0083 17.8248C16.2498 17.928 16.4249 18.0999 16.5335 18.3406C16.6421 18.5812 16.6627 18.8271 16.5954 19.0783L15.4272 23.4381C15.3407 23.7611 15.1609 24.0013 14.8879 24.159C14.6149 24.3166 14.317 24.3521 13.994 24.2656C11.6795 23.6454 9.56181 22.5249 7.64084 20.9041C5.71896 19.2838 4.13765 17.3986 2.89692 15.2486C1.65528 13.099 0.813224 10.7873 0.370753 8.3135C-0.0722427 5.83876 0.016341 3.44415 0.636504 1.12967ZM9.53789 19.5813C10.1559 20.0738 10.8021 20.497 11.4765 20.8507C12.1509 21.2045 12.8439 21.5248 13.5554 21.8116L14.1972 19.4164L11.7901 18.281L9.53789 19.5813ZM2.48481 7.36503L4.7711 6.04504L4.93761 3.37825L2.56931 2.74367C2.42603 3.4937 2.34669 4.25625 2.33131 5.03132C2.31612 5.80568 2.36729 6.58358 2.48481 7.36503V7.36503Z" fill="#666666"/>
</svg>
