<svg width="24" height="24" viewBox="0 0 24 24" fill="#FF9728" xmlns="http://www.w3.org/2000/svg">
<path d="M4.37711 4.37711C5.95752 2.7967 8.52685 2.79669 10.1073 4.37711L13.8041 8.07398L15.5602 6.31797L11.8633 2.62109C9.31244 0.07025 5.17194 0.07025 2.62109 2.62109C0.0702499 5.17194 0.0702501 9.31244 2.62109 11.8633L6.31797 15.5602L8.07398 13.8041L4.37711 10.1073C2.79669 8.52685 2.7967 5.95752 4.37711 4.37711ZM7.24219 9.09063L14.6359 16.4844L16.4844 14.6359L9.09063 7.24219L7.24219 9.09063ZM21.1055 11.8633L17.4086 8.16641L15.6526 9.92242L19.3495 13.6193C20.9299 15.1997 20.9299 17.769 19.3495 19.3495C17.769 20.9299 15.1997 20.9299 13.6193 19.3495L9.92242 15.6526L8.16641 17.4086L11.8633 21.1055C14.4141 23.6563 18.5546 23.6563 21.1055 21.1055C23.6563 18.5546 23.6563 14.4141 21.1055 11.8633Z" fill="#FF9728"/>
</svg>
